<svg width="115" height="71" viewBox="0 0 115 71" fill="none" xmlns="http://www.w3.org/2000/svg">
<g filter="url(#filter0_d_7_6796)">
<path fill-rule="evenodd" clip-rule="evenodd" d="M102.186 38.4077C102.186 38.4077 111.673 45.4255 110.933 48.7701C110.193 52.1146 98.7328 54.3959 98.7328 54.3959C98.7328 54.3959 95.1089 65.7442 91.7695 65.9955C88.4302 66.2468 82.7381 55.9038 82.7381 55.9038C82.7381 55.9038 71.0314 55.9038 69.6843 52.7719C68.3372 49.64 76.3251 40.9016 76.3251 40.9016C76.3251 40.9016 72.7011 29.5534 75.2056 27.3688C77.7101 25.1842 88.3353 30.114 88.3353 30.114C88.3353 30.114 97.822 23.1156 100.706 24.8362C103.59 26.5568 102.186 38.4077 102.186 38.4077Z" fill="url(#paint0_linear_7_6796)"/>
<path fill-rule="evenodd" clip-rule="evenodd" d="M99.6815 39.5483C99.6815 39.5483 107.461 45.3481 106.872 48.0353C106.284 50.7226 96.8545 52.6752 96.8545 52.6752C96.8545 52.6752 93.8757 61.9742 91.1624 62.3415C88.4492 62.7088 83.7437 54.0478 83.7437 54.0478C83.7437 54.0478 74.1432 54.0478 73.0427 51.4766C71.9423 48.9053 78.4691 41.8102 78.4691 41.8102C78.4691 41.8102 75.5093 32.4919 77.5584 30.6359C79.6076 28.78 88.3354 32.8979 88.3354 32.8979C88.3354 32.8979 96.1145 27.0981 98.4862 28.5674C100.858 30.0366 99.6815 39.5483 99.6815 39.5483Z" fill="#432444"/>
<path fill-rule="evenodd" clip-rule="evenodd" d="M106.019 47.9001C105.45 50.5294 96.4183 52.3273 96.4183 52.3273C96.4183 52.3273 93.5722 61.259 90.9539 61.5103C88.3355 61.7617 84.1233 54.0866 83.8767 53.6033C83.8767 53.6033 74.6746 53.6033 73.612 51.148C72.5495 48.6928 78.8298 41.8103 78.8298 41.8103C78.8298 41.8103 75.9837 32.898 77.9569 31.1C79.9302 29.3021 88.2785 33.2653 88.2785 33.2653C88.2785 33.2653 95.7162 27.7555 97.993 29.1281C100.27 30.5007 99.1503 39.7997 99.1503 39.7997C99.1503 39.7997 106.588 45.2902 106.019 47.9001Z" fill="url(#paint1_linear_7_6796)"/>
<path fill-rule="evenodd" clip-rule="evenodd" d="M25.4571 29.1281C25.4571 29.1281 35.7598 23.4442 38.3971 25.5515C41.0344 27.6588 38.1314 39.2004 38.1314 39.2004C38.1314 39.2004 46.6126 47.4361 45.4552 50.6453C44.2978 53.8546 32.629 54.5119 32.629 54.5119C32.629 54.5119 27.5821 65.2802 24.2238 65.1449C20.8655 65.0095 16.6344 53.9319 16.6344 53.9319C16.6344 53.9319 5.0226 52.366 4.0929 49.0794C3.16319 45.7928 12.2136 38.1951 12.2136 38.1951C12.2136 38.1951 10.0885 26.4601 12.8587 24.6622C15.6288 22.8643 25.4571 29.1281 25.4571 29.1281Z" fill="url(#paint2_linear_7_6796)"/>
<path fill-rule="evenodd" clip-rule="evenodd" d="M25.3622 31.9698C25.3622 31.9698 33.8244 27.2913 35.9873 29.0312C38.1503 30.7712 35.7597 40.2442 35.7597 40.2442C35.7597 40.2442 42.7229 46.9913 41.7742 49.6206C40.8256 52.2498 31.244 52.8684 31.244 52.8684C31.244 52.8684 27.0887 61.7035 24.3566 61.5875C21.6244 61.4715 18.0953 52.3271 18.0953 52.3271C18.0953 52.3271 8.60856 51.0512 7.7927 48.3446C6.97684 45.638 14.4524 39.4129 14.4524 39.4129C14.4524 39.4129 12.7068 29.7465 15.0026 28.2193C17.2984 26.692 25.3622 31.9698 25.3622 31.9698Z" fill="#432444"/>
<path fill-rule="evenodd" clip-rule="evenodd" d="M25.3433 32.5113C25.3433 32.5113 33.445 28.0455 35.5131 29.7081C37.5812 31.3707 35.3044 40.4377 35.3044 40.4377C35.3044 40.4377 41.9641 46.8948 40.9965 49.4274C40.0289 51.96 30.9026 52.5207 30.9026 52.5207C30.9026 52.5207 26.9371 60.9883 24.2998 60.8917C21.6625 60.795 18.2851 52.076 18.2851 52.076C18.2851 52.076 9.15891 50.8387 8.43792 48.2094C7.71692 45.5802 14.8131 39.6451 14.8131 39.6451C14.8131 39.6451 13.1433 30.4234 15.3253 28.9348C17.5072 27.4461 25.3433 32.5113 25.3433 32.5113Z" fill="url(#paint3_linear_7_6796)"/>
<path fill-rule="evenodd" clip-rule="evenodd" d="M67.4266 18.0504C67.4266 18.0504 80.9926 19.8096 82.0931 23.6375C83.1936 27.4654 72.7013 36.3971 72.7013 36.3971C72.7013 36.3971 75.2436 50.1039 72.0181 52.3465C68.7926 54.5891 57.1998 47.1847 57.1998 47.1847C57.1998 47.1847 45.2085 53.8932 42.1158 51.4572C39.0232 49.0213 42.3436 35.4884 42.3436 35.4884C42.3436 35.4884 32.3824 25.9381 33.6916 22.1876C35.0008 18.437 48.6617 17.4897 48.6617 17.4897C48.6617 17.4897 54.5056 4.8848 58.4142 5.0008C62.3227 5.11679 67.4266 18.0504 67.4266 18.0504Z" fill="url(#paint4_linear_7_6796)"/>
<path fill-rule="evenodd" clip-rule="evenodd" d="M65.3396 20.6798C65.3396 20.6798 76.477 22.1104 77.3877 25.2616C78.2984 28.4128 69.6655 35.7399 69.6655 35.7399C69.6655 35.7399 71.7716 46.9722 69.1153 48.8282C66.459 50.6841 56.9532 44.5943 56.9532 44.5943C56.9532 44.5943 47.106 50.0848 44.5635 48.0935C42.0211 46.1023 44.7532 34.986 44.7532 34.986C44.7532 34.986 36.5756 27.1562 37.6571 24.063C38.7386 20.9698 49.9519 20.1965 49.9519 20.1965C49.9519 20.1965 54.7333 9.85347 57.9398 9.95014C61.1464 10.0468 65.3396 20.6798 65.3396 20.6798Z" fill="#432444"/>
<path fill-rule="evenodd" clip-rule="evenodd" d="M64.9599 21.1821C64.9599 21.1821 75.6231 22.5741 76.4769 25.5706C77.3307 28.5672 69.0961 35.6043 69.0961 35.6043C69.0961 35.6043 71.1073 46.3726 68.5648 48.1319C66.0224 49.8911 56.9152 44.072 56.9152 44.072C56.9152 44.072 47.4284 49.3498 45.0567 47.4359C42.685 45.5219 45.2464 34.889 45.2464 34.889C45.2464 34.889 37.4103 27.3879 38.4538 24.43C39.4974 21.4721 50.2175 20.7374 50.2175 20.7374C50.2175 20.7374 54.7901 10.8391 57.8069 10.9358C60.8237 11.0324 64.9599 21.1821 64.9599 21.1821Z" fill="url(#paint5_linear_7_6796)"/>
</g>
<defs>
<filter id="filter0_d_7_6796" x="-0.00168085" y="0.97244" width="115.003" height="69.0551" filterUnits="userSpaceOnUse" color-interpolation-filters="sRGB">
<feFlood flood-opacity="0" result="BackgroundImageFix"/>
<feColorMatrix in="SourceAlpha" type="matrix" values="0 0 0 0 0 0 0 0 0 0 0 0 0 0 0 0 0 0 127 0" result="hardAlpha"/>
<feOffset/>
<feGaussianBlur stdDeviation="2.01378"/>
<feComposite in2="hardAlpha" operator="out"/>
<feColorMatrix type="matrix" values="0 0 0 0 0.52549 0 0 0 0 0.52549 0 0 0 0 0.52549 0 0 0 0.7 0"/>
<feBlend mode="normal" in2="BackgroundImageFix" result="effect1_dropShadow_7_6796"/>
<feBlend mode="normal" in="SourceGraphic" in2="effect1_dropShadow_7_6796" result="shape"/>
</filter>
<linearGradient id="paint0_linear_7_6796" x1="90.5593" y1="66.1583" x2="89.6521" y2="24.828" gradientUnits="userSpaceOnUse">
<stop stop-color="#C1BDF1"/>
<stop offset="1" stop-color="#FBF9FE"/>
</linearGradient>
<linearGradient id="paint1_linear_7_6796" x1="89.7585" y1="61.5103" x2="89.7585" y2="28.8961" gradientUnits="userSpaceOnUse">
<stop stop-color="#48365E"/>
<stop offset="1" stop-color="#685763"/>
</linearGradient>
<linearGradient id="paint2_linear_7_6796" x1="39.9603" y1="52.6652" x2="2.91795" y2="36.1732" gradientUnits="userSpaceOnUse">
<stop stop-color="#C1BDF1"/>
<stop offset="1" stop-color="#FBF9FE"/>
</linearGradient>
<linearGradient id="paint3_linear_7_6796" x1="19.8431" y1="61.7524" x2="19.8894" y2="29.693" gradientUnits="userSpaceOnUse">
<stop stop-color="#48365E"/>
<stop offset="1" stop-color="#685763"/>
</linearGradient>
<linearGradient id="paint4_linear_7_6796" x1="70.7279" y1="53.0425" x2="46.3573" y2="11.6217" gradientUnits="userSpaceOnUse">
<stop stop-color="#C1BDF1"/>
<stop offset="1" stop-color="#FBF9FE"/>
</linearGradient>
<linearGradient id="paint5_linear_7_6796" x1="57.4464" y1="48.4799" x2="57.4464" y2="10.9358" gradientUnits="userSpaceOnUse">
<stop stop-color="#48365E"/>
<stop offset="1" stop-color="#685763"/>
</linearGradient>
</defs>
</svg>
