<svg width="19" height="22" viewBox="0 0 19 22" fill="none" xmlns="http://www.w3.org/2000/svg">
<path d="M17 0.5H2.00001C1.60218 0.5 1.22065 0.658035 0.939345 0.93934C0.658041 1.22064 0.500006 1.60218 0.500006 2V11.75C0.498252 13.2458 0.903929 14.7138 1.67348 15.9964C2.44303 17.2791 3.5474 18.3279 4.86801 19.0303L9.50001 21.5L14.132 19.0303C15.4526 18.3279 16.557 17.2791 17.3265 15.9964C18.0961 14.7138 18.5018 13.2458 18.5 11.75V2C18.5 1.60218 18.342 1.22064 18.0607 0.93934C17.7794 0.658035 17.3978 0.5 17 0.5ZM14.75 12.5H4.25001V11H14.75V12.5ZM14.75 8H4.25001V6.5H14.75V8Z" fill="white"/>
</svg>
