<svg width="115" height="71" viewBox="0 0 115 71" fill="none" xmlns="http://www.w3.org/2000/svg">
<g filter="url(#filter0_d_7_6737)">
<path fill-rule="evenodd" clip-rule="evenodd" d="M102.194 38.3709C102.194 38.3709 111.664 45.3716 110.934 48.7022C110.204 52.0329 98.731 54.3241 98.731 54.3241C98.731 54.3241 95.1015 65.6525 91.7639 65.9919C88.4264 66.3314 82.7318 55.9151 82.7318 55.9151C82.7318 55.9151 71.0296 55.9151 69.6737 52.7966C68.3179 49.6781 76.307 40.9379 76.307 40.9379C76.307 40.9379 72.6983 29.6094 75.2015 27.3394C77.7046 25.0695 88.343 30.0973 88.343 30.0973C88.343 30.0973 97.8132 23.0966 100.692 24.8149C103.57 26.5333 102.194 38.3709 102.194 38.3709Z" fill="url(#paint0_linear_7_6737)"/>
<path fill-rule="evenodd" clip-rule="evenodd" d="M99.6488 39.5165C99.6488 39.5165 107.429 45.2444 106.845 48.0023C106.261 50.7601 96.8119 52.6269 96.8119 52.6269C96.8119 52.6269 93.8498 61.9188 91.0963 62.1946C88.3429 62.4704 83.6912 53.9211 83.6912 53.9211C83.6912 53.9211 74.075 53.9211 72.9695 51.3541C71.8639 48.7872 78.4138 41.638 78.4138 41.638C78.4138 41.638 75.4517 32.325 77.496 30.4794C79.5402 28.6337 88.2803 32.7281 88.2803 32.7281C88.2803 32.7281 96.0609 26.979 98.4389 28.4852C100.817 29.9914 99.6488 39.5165 99.6488 39.5165Z" fill="url(#paint1_linear_7_6737)"/>
<path fill-rule="evenodd" clip-rule="evenodd" d="M99.1274 39.7287C99.1274 39.7287 106.595 45.2231 106.011 47.8537C105.427 50.4842 96.4157 52.2663 96.4157 52.2663C96.4157 52.2663 93.5788 61.1763 90.9505 61.4309C88.3222 61.6854 83.8583 53.518 83.8583 53.518C83.8583 53.518 74.6384 53.5179 73.5954 51.057C72.5524 48.5962 78.7894 41.7441 78.7894 41.7441C78.7894 41.7441 75.9525 32.8341 77.9342 31.1369C79.9158 29.4398 88.2388 33.2584 88.2388 33.2584C88.2388 33.2584 95.7065 27.7639 97.9593 29.0155C100.212 30.2672 99.1274 39.7287 99.1274 39.7287Z" fill="url(#paint2_radial_7_6737)"/>
<g style="mix-blend-mode:soft-light" opacity="0.5">
<path fill-rule="evenodd" clip-rule="evenodd" d="M78.497 44.2048C78.497 44.2048 74.7423 48.4478 75.3055 50.1025C75.8687 51.7572 84.6088 51.9269 84.6088 51.9269C84.6088 51.9269 88.7807 57.294 90.8667 57.4213C92.9526 57.5486 95.4558 50.4418 95.4558 50.4418C95.4558 50.4418 103.341 49.8053 104.884 48.1294C103.76 49.328 102.402 50.2738 100.896 50.9059C99.3911 51.538 97.7722 51.8425 96.1442 51.7996C96.1442 51.7996 93.203 60.6884 90.7624 60.9642C88.3218 61.2399 83.9622 52.9876 83.9622 52.9876C83.9622 52.9876 75.7644 54.3453 74.0122 51.1207C72.8858 48.9781 78.497 44.2048 78.497 44.2048Z" fill="white"/>
</g>
<g filter="url(#filter1_f_7_6737)">
<path fill-rule="evenodd" clip-rule="evenodd" d="M89.4276 36.7588C89.3468 36.9133 89.2364 37.0499 89.103 37.1605C88.9696 37.2712 88.8159 37.3535 88.6507 37.4029C88.4856 37.4523 88.3124 37.4678 88.1414 37.4482C87.9703 37.4287 87.8048 37.3746 87.6546 37.2891C87.3517 37.1189 87.1271 36.8342 87.0295 36.4966C86.9318 36.159 86.9691 35.7958 87.1331 35.486C87.3004 35.178 87.5805 34.9495 87.9124 34.8502C88.2444 34.7509 88.6015 34.7888 88.9061 34.9556C89.0581 35.0378 89.1924 35.15 89.3012 35.2856C89.4099 35.4213 89.491 35.5777 89.5396 35.7457C89.5881 35.9136 89.6033 36.0898 89.584 36.2637C89.5648 36.4377 89.5116 36.606 89.4276 36.7588Z" fill="white"/>
</g>
<path fill-rule="evenodd" clip-rule="evenodd" d="M25.4515 29.1004C25.4515 29.1004 35.7561 23.4362 38.3844 25.5365C41.0127 27.6367 38.1132 39.156 38.1132 39.156C38.1132 39.156 46.603 47.3659 45.4558 50.5693C44.3085 53.7726 32.6063 54.5151 32.6063 54.5151C32.6063 54.5151 27.5583 65.2707 24.2625 65.1222C20.9667 64.9737 16.6071 53.9212 16.6071 53.9212C16.6071 53.9212 5.00919 52.3512 4.09137 49.0842C3.17355 45.8172 12.2057 38.2225 12.2057 38.2225C12.2057 38.2225 10.1198 26.4911 12.8732 24.603C15.6267 22.7149 25.4515 29.1004 25.4515 29.1004Z" fill="url(#paint3_linear_7_6737)"/>
<path fill-rule="evenodd" clip-rule="evenodd" d="M25.3472 32.0064C25.3472 32.0064 33.7953 27.3393 35.9646 29.0576C38.134 30.776 35.7352 40.2588 35.7352 40.2588C35.7352 40.2588 42.7023 47.0049 41.7636 49.6143C40.8249 52.2236 31.2295 52.8601 31.2295 52.8601C31.2295 52.8601 27.0576 61.6852 24.325 61.5792C21.5924 61.4731 18.0672 52.3933 18.0672 52.3933C18.0672 52.3933 8.53441 51.0993 7.78346 48.405C7.03252 45.7108 14.4376 39.4951 14.4376 39.4951C14.4376 39.4951 12.6854 29.885 14.98 28.3152C17.2745 26.7453 25.3472 32.0064 25.3472 32.0064Z" fill="url(#paint4_linear_7_6737)"/>
<path fill-rule="evenodd" clip-rule="evenodd" d="M25.3264 32.4733C25.3264 32.4733 33.4199 28.0184 35.5059 29.6731C37.5918 31.3278 35.2764 40.3863 35.2764 40.3863C35.2764 40.3863 41.9515 46.7505 41.0545 49.3599C40.1576 51.9692 30.9585 52.4572 30.9585 52.4572C30.9585 52.4572 26.9952 60.9429 24.346 60.8156C21.6969 60.6884 18.3385 52.0117 18.3385 52.0117C18.3385 52.0117 9.20205 50.7813 8.49283 48.1931C7.78361 45.605 14.7507 39.7074 14.7507 39.7074C14.7507 39.7074 13.0819 30.5004 15.2722 28.9942C17.4624 27.488 25.3264 32.4733 25.3264 32.4733Z" fill="url(#paint5_radial_7_6737)"/>
<g style="mix-blend-mode:soft-light" opacity="0.5">
<path fill-rule="evenodd" clip-rule="evenodd" d="M20.3826 53.3484C20.3826 53.3484 22.4685 58.5883 24.2624 58.8217C26.0564 59.0551 29.8736 51.0784 29.8736 51.0784C29.8736 51.0784 36.4861 49.4874 37.4874 47.6205C38.4886 45.7536 33.3155 40.4077 33.3155 40.4077C33.3155 40.4077 36.1732 32.8978 35.4014 30.7551C35.9772 32.3056 36.2283 33.9614 36.1385 35.6163C36.0487 37.2711 35.62 38.8886 34.8799 40.3653C34.8799 40.3653 41.5132 46.9205 40.6789 49.254C39.8445 51.5876 30.6872 52.0543 30.6872 52.0543C30.6872 52.0543 28.3509 60.1582 24.7422 60.3703C22.1139 60.5188 20.3826 53.3484 20.3826 53.3484Z" fill="white"/>
</g>
<g filter="url(#filter2_f_7_6737)">
<path fill-rule="evenodd" clip-rule="evenodd" d="M18.5262 40.1104C18.7234 40.4017 18.8011 40.7598 18.7426 41.1085C18.6842 41.4571 18.4943 41.7689 18.2133 41.9773C17.9301 42.1767 17.5813 42.255 17.2419 42.1955C16.9025 42.136 16.5997 41.9433 16.3985 41.659C16.2971 41.517 16.2243 41.356 16.1841 41.1853C16.1439 41.0145 16.1372 40.8374 16.1643 40.6641C16.1914 40.4907 16.2518 40.3245 16.3421 40.1749C16.4324 40.0253 16.5508 39.8952 16.6905 39.7922C16.977 39.5916 17.3291 39.5126 17.6719 39.572C18.0147 39.6315 18.3212 39.8247 18.5262 40.1104Z" fill="white"/>
</g>
<path fill-rule="evenodd" clip-rule="evenodd" d="M67.3167 18.0477C67.3167 18.0477 80.8962 19.7872 81.9183 23.627C82.9404 27.4668 72.5107 36.3556 72.5107 36.3556C72.5107 36.3556 75.0556 50.0388 71.8223 52.2875C68.5891 54.5362 57.0121 47.1325 57.0121 47.1325C57.0121 47.1325 45.0179 53.815 41.9098 51.3753C38.8017 48.9357 42.1601 35.4434 42.1601 35.4434C42.1601 35.4434 32.1892 25.8969 33.5034 22.1632C34.8175 18.4295 48.4805 17.4537 48.4805 17.4537C48.4805 17.4537 54.3003 4.87367 58.2219 5.00096C62.1435 5.12825 67.3167 18.0477 67.3167 18.0477Z" fill="url(#paint6_linear_7_6737)"/>
<path fill-rule="evenodd" clip-rule="evenodd" d="M65.335 20.6572C65.335 20.6572 76.4739 22.0997 77.3709 25.2394C78.2679 28.3791 69.6529 35.698 69.6529 35.698C69.6529 35.698 71.7388 46.9205 69.1105 48.7661C66.4822 50.6117 56.9286 44.5232 56.9286 44.5232C56.9286 44.5232 47.0829 50.0176 44.538 48.0023C41.9932 45.9869 44.7466 34.9344 44.7466 34.9344C44.7466 34.9344 36.5488 27.1063 37.6335 24.0302C38.7182 20.9541 49.9406 20.1904 49.9406 20.1904C49.9406 20.1904 54.7175 9.85902 57.9298 9.94388C61.1422 10.0287 65.335 20.6572 65.335 20.6572Z" fill="url(#paint7_linear_7_6737)"/>
<path fill-rule="evenodd" clip-rule="evenodd" d="M64.9385 21.1661C64.9385 21.1661 75.6186 22.545 76.4738 25.5575C77.3291 28.5699 69.0896 35.5705 69.0896 35.5705C69.0896 35.5705 71.1755 46.3262 68.5472 48.087C65.9189 49.8478 56.9076 44.035 56.9076 44.035C56.9076 44.035 47.4791 49.2962 45.0386 47.3869C42.598 45.4776 45.2263 34.8493 45.2263 34.8493C45.2263 34.8493 37.404 27.3606 38.4261 24.4118C39.4482 21.463 50.1908 20.7418 50.1908 20.7418C50.1908 20.7418 54.78 10.8347 57.8672 10.9408C60.9544 11.0469 64.9385 21.1661 64.9385 21.1661Z" fill="url(#paint8_radial_7_6737)"/>
<g style="mix-blend-mode:soft-light" opacity="0.5">
<path fill-rule="evenodd" clip-rule="evenodd" d="M46.29 37.565C46.29 37.565 44.7464 43.9293 46.29 45.4143C47.8337 46.8993 56.7198 41.9564 56.7198 41.9564C56.7198 41.9564 64.0624 45.0324 66.2526 43.9717C68.4429 42.911 67.087 34.192 67.087 34.192C67.087 34.192 74.8259 29.0368 75.4308 26.4275C74.9378 28.2969 74.0675 30.0413 72.8752 31.5498C71.6828 33.0582 70.1947 34.2976 68.5054 35.189C68.5054 35.189 70.4036 46.0083 68.0674 47.6418C65.7311 49.2753 56.6781 43.3989 56.6781 43.3989C56.6781 43.3989 49.0435 49.4663 45.4765 47.1751C43.0985 45.5416 46.29 37.565 46.29 37.565Z" fill="white"/>
</g>
<g filter="url(#filter3_f_7_6737)">
<path fill-rule="evenodd" clip-rule="evenodd" d="M53.3823 23.6905C53.3768 24.1031 53.2117 24.497 52.9228 24.7868C52.634 25.0766 52.2445 25.2391 51.8387 25.2391C51.4348 25.2391 51.0475 25.0759 50.7619 24.7855C50.4763 24.4951 50.3159 24.1012 50.3159 23.6905C50.3159 23.2798 50.4763 22.8857 50.7619 22.5953C51.0475 22.3049 51.4348 22.1417 51.8387 22.1417C52.0404 22.1389 52.2406 22.1769 52.4278 22.2535C52.6149 22.3301 52.7853 22.4437 52.9289 22.5878C53.0725 22.7319 53.1865 22.9036 53.2644 23.0929C53.3422 23.2822 53.3823 23.4853 53.3823 23.6905Z" fill="white"/>
</g>
</g>
<defs>
<filter id="filter0_d_7_6737" x="-0.00168085" y="0.97244" width="115.003" height="69.0551" filterUnits="userSpaceOnUse" color-interpolation-filters="sRGB">
<feFlood flood-opacity="0" result="BackgroundImageFix"/>
<feColorMatrix in="SourceAlpha" type="matrix" values="0 0 0 0 0 0 0 0 0 0 0 0 0 0 0 0 0 0 127 0" result="hardAlpha"/>
<feOffset/>
<feGaussianBlur stdDeviation="2.01378"/>
<feComposite in2="hardAlpha" operator="out"/>
<feColorMatrix type="matrix" values="0 0 0 0 0.524639 0 0 0 0 0.524639 0 0 0 0 0.524639 0 0 0 0.7 0"/>
<feBlend mode="normal" in2="BackgroundImageFix" result="effect1_dropShadow_7_6737"/>
<feBlend mode="normal" in="SourceGraphic" in2="effect1_dropShadow_7_6737" result="shape"/>
</filter>
<filter id="filter1_f_7_6737" x="84.9761" y="32.7959" width="6.61597" height="6.66064" filterUnits="userSpaceOnUse" color-interpolation-filters="sRGB">
<feFlood flood-opacity="0" result="BackgroundImageFix"/>
<feBlend mode="normal" in="SourceGraphic" in2="BackgroundImageFix" result="shape"/>
<feGaussianBlur stdDeviation="1" result="effect1_foregroundBlur_7_6737"/>
</filter>
<filter id="filter2_f_7_6737" x="14.1479" y="37.5527" width="6.61377" height="6.66211" filterUnits="userSpaceOnUse" color-interpolation-filters="sRGB">
<feFlood flood-opacity="0" result="BackgroundImageFix"/>
<feBlend mode="normal" in="SourceGraphic" in2="BackgroundImageFix" result="shape"/>
<feGaussianBlur stdDeviation="1" result="effect1_foregroundBlur_7_6737"/>
</filter>
<filter id="filter3_f_7_6737" x="48.3159" y="20.1416" width="7.06641" height="7.09741" filterUnits="userSpaceOnUse" color-interpolation-filters="sRGB">
<feFlood flood-opacity="0" result="BackgroundImageFix"/>
<feBlend mode="normal" in="SourceGraphic" in2="BackgroundImageFix" result="shape"/>
<feGaussianBlur stdDeviation="1" result="effect1_foregroundBlur_7_6737"/>
</filter>
<linearGradient id="paint0_linear_7_6737" x1="90.5422" y1="65.9234" x2="89.6392" y2="24.6848" gradientUnits="userSpaceOnUse">
<stop stop-color="#C1BDF1"/>
<stop offset="1" stop-color="#FBF9FE"/>
</linearGradient>
<linearGradient id="paint1_linear_7_6737" x1="75.1488" y1="34.4386" x2="105.315" y2="50.7184" gradientUnits="userSpaceOnUse">
<stop stop-color="#C44C25"/>
<stop offset="1" stop-color="#FF5E42"/>
</linearGradient>
<radialGradient id="paint2_radial_7_6737" cx="0" cy="0" r="1" gradientUnits="userSpaceOnUse" gradientTransform="translate(89.8459 35.6001) rotate(29.1693) scale(16.1255 16.2705)">
<stop stop-color="#FFC62D"/>
<stop offset="1" stop-color="#FF9200"/>
</radialGradient>
<linearGradient id="paint3_linear_7_6737" x1="42.14" y1="45.6482" x2="5.11689" y2="29.1526" gradientUnits="userSpaceOnUse">
<stop stop-color="#C1BDF1"/>
<stop offset="1" stop-color="#FBF9FE"/>
</linearGradient>
<linearGradient id="paint4_linear_7_6737" x1="7.68209" y1="46.1507" x2="35.6727" y2="26.4432" gradientUnits="userSpaceOnUse">
<stop stop-color="#C44C25"/>
<stop offset="1" stop-color="#FF5E42"/>
</linearGradient>
<radialGradient id="paint5_radial_7_6737" cx="0" cy="0" r="1" gradientUnits="userSpaceOnUse" gradientTransform="translate(15.0427 33.2265) rotate(-36.0631) scale(16.0942 16.1798)">
<stop stop-color="#FFC62D"/>
<stop offset="1" stop-color="#FF9200"/>
</radialGradient>
<linearGradient id="paint6_linear_7_6737" x1="70.7168" y1="52.9876" x2="46.4159" y2="11.5928" gradientUnits="userSpaceOnUse">
<stop stop-color="#C1BDF1"/>
<stop offset="1" stop-color="#FBF9FE"/>
</linearGradient>
<linearGradient id="paint7_linear_7_6737" x1="37.5501" y1="29.5459" x2="77.4335" y2="29.5459" gradientUnits="userSpaceOnUse">
<stop stop-color="#C44C25"/>
<stop offset="1" stop-color="#FF5E42"/>
</linearGradient>
<radialGradient id="paint8_radial_7_6737" cx="0" cy="0" r="1" gradientUnits="userSpaceOnUse" gradientTransform="translate(53.2363 22.3116) scale(18.7736 19.0929)">
<stop stop-color="#FFC62D"/>
<stop offset="1" stop-color="#FF9200"/>
</radialGradient>
</defs>
</svg>
